HIERARCHY
ROOT Hips
{
	OFFSET	0.000000	0.000000	0.000000
	CHANNELS 6 Xposition Yposition Zposition Zrotation Xrotation Yrotation
	JOINT LeftUpLeg
	{
		OFFSET	12.830505	-7.049846	-1.643436
		CHANNELS 3 Zrotation Xrotation Yrotation
		JOINT LeftLeg
		{
			OFFSET	0.620834	-39.957500	-1.919341
			CHANNELS 3 Zrotation Xrotation Yrotation
			JOINT LeftFoot
			{
				OFFSET	-0.413890	-44.704761	-3.870325
				CHANNELS 3 Zrotation Xrotation Yrotation
				JOINT LeftFootHeel
				{
					OFFSET	0.164738	-8.918193	-6.555130
					CHANNELS 3 Zrotation Xrotation Yrotation
					End Site
					{
						OFFSET	-0.604053	0.000000	21.044330
					}
				}
			}
		}
	}
	JOINT RightUpLeg
	{
		OFFSET	-12.830505	-7.049846	-1.643436
		CHANNELS 3 Zrotation Xrotation Yrotation
		JOINT RightLeg
		{
			OFFSET	-0.620834	-39.957500	-1.919341
			CHANNELS 3 Zrotation Xrotation Yrotation
			JOINT RightFoot
			{
				OFFSET	0.413890	-44.704761	-3.870325
				CHANNELS 3 Zrotation Xrotation Yrotation
				JOINT RightFootHeel
				{
					OFFSET	-0.164738	-8.918193	-6.555130
					CHANNELS 3 Zrotation Xrotation Yrotation
					End Site
					{
						OFFSET	0.604053	0.000000	21.044330
					}
				}
			}
		}
	}
	JOINT Spine
	{
		OFFSET	0.000000	12.498170	1.820647
		CHANNELS 3 Zrotation Xrotation Yrotation
		JOINT Spine1
		{
			OFFSET	0.000000	7.620000	0.000000
			CHANNELS 3 Zrotation Xrotation Yrotation
			JOINT LeftShoulder
			{
				OFFSET	9.167800	29.136339	-5.551221
				CHANNELS 3 Zrotation Xrotation Yrotation
				JOINT LeftArm
				{
					OFFSET	12.133453	-3.880866	1.461963
					CHANNELS 3 Zrotation Xrotation Yrotation
					JOINT LeftForeArm
					{
						OFFSET	2.507115	-31.664908	-1.069404
						CHANNELS 3 Zrotation Xrotation Yrotation
						JOINT LeftHand
						{
							OFFSET	4.116172	-24.512624	5.009439
							CHANNELS 3 Zrotation Xrotation Yrotation
							End Site
							{
								OFFSET	-0.213136	-10.931856	2.182134
							}
						}
					}
				}
			}
			JOINT RightShoulder
			{
				OFFSET	-9.167800	29.136339	-5.551221
				CHANNELS 3 Zrotation Xrotation Yrotation
				JOINT RightArm
				{
					OFFSET	-12.133453	-3.880866	1.461963
					CHANNELS 3 Zrotation Xrotation Yrotation
					JOINT RightForeArm
					{
						OFFSET	-2.507115	-31.664908	-1.069404
						CHANNELS 3 Zrotation Xrotation Yrotation
						JOINT RightHand
						{
							OFFSET	-4.116172	-24.512624	5.009439
							CHANNELS 3 Zrotation Xrotation Yrotation
							End Site
							{
								OFFSET	0.213136	-10.931856	2.182134
							}
						}
					}
				}
			}
			JOINT Neck
			{
				OFFSET	0.000000	32.926272	-3.635654
				CHANNELS 3 Zrotation Xrotation Yrotation
				JOINT Head
				{
					OFFSET	0.000000	12.481178	4.646143
					CHANNELS 3 Zrotation Xrotation Yrotation
					End Site
					{
						OFFSET	0.000000	17.715204	-2.222063
					}
				}
			}
		}
	}
}
MOTION
Frames:     19
Frame Time: 0.016667
4.761936	102.554301	-4.342986	5.154577	-2.532782	34.300091	-10.228035	-7.507556	-2.874545	6.471222	18.461443	-22.154131	0.418069	-4.860435	-7.275514	0.	0.	0.	-6.833781	5.823037	-12.710040	1.589809	9.919949	-10.809656	3.816846	-9.567784	-12.309075	0.	0.	0.	-0.000000	0.000000	-0.000002	7.287824	0.698417	31.473215	3.609487	0.118332	9.072626	53.195511	12.145411	37.164711	71.300140	-125.716492	73.893646	-15.656249	12.035140	-14.927884	1.529249	-2.510135	4.299296	-17.423576	21.069654	-10.733241	11.272915	-21.811918	17.150890	-3.969428	4.226435	3.010586	-9.409536	11.457671	-6.065732	0.815389	4.578746	-5.071482	
4.470054	102.637115	-4.041061	4.882424	-2.261914	32.254478	-9.987566	-7.528399	-2.818463	6.115043	17.672169	-20.732851	0.296603	-4.659410	-6.660173	0.	0.	0.	-6.785012	4.905990	-12.191747	1.400487	10.021736	-10.129093	3.520893	-9.317495	-11.566463	0.	0.	0.	-0.000000	0.000000	0.000001	7.135994	0.883610	30.348333	3.682531	0.141528	8.686393	52.116138	11.998231	34.944660	80.288414	-127.578430	82.814079	-14.560561	11.712966	-14.654772	1.365489	-2.416365	4.231553	-15.918217	18.118687	-10.329439	10.832255	-20.927544	16.414942	-4.472204	4.279499	3.252130	-10.092433	11.044876	-5.444869	1.182066	3.908854	-4.636877	
4.317958	102.674642	-3.815801	4.658031	-2.058253	30.765806	-9.744222	-7.604649	-2.746579	5.875775	17.077171	-19.991837	0.133029	-4.402246	-5.980012	0.	0.	0.	-6.767941	4.230824	-11.862112	1.292553	10.139597	-9.766567	3.314909	-9.109608	-10.869951	0.	0.	0.	0.000000	-0.000000	0.000000	7.221976	0.959396	29.939230	3.668924	0.119029	7.934155	51.635662	14.110737	36.622784	83.387817	-132.277466	86.749825	-13.742134	11.291605	-14.552713	1.303821	-2.217884	3.885730	-15.000306	16.403793	-10.422220	10.663202	-20.430590	16.179670	-5.161765	4.269053	3.480683	-9.870615	11.060296	-6.443119	0.421118	3.488807	-2.830741	
4.082459	102.731276	-3.648343	4.431528	-1.901265	29.185976	-9.400841	-7.667816	-2.725229	5.567321	16.567341	-19.077698	-0.037892	-4.194550	-5.324048	0.	0.	0.	-6.650610	3.593076	-11.516232	1.134195	10.122866	-9.242214	3.160568	-8.881086	-10.249519	0.	0.	0.	0.000000	0.000000	-0.000000	7.368071	0.973689	29.808290	3.576751	0.216899	6.924906	49.280937	10.709844	29.581089	-85.374184	-52.168362	-84.636681	-12.738196	10.454946	-14.282177	1.219314	-1.617297	3.439733	-13.973894	14.896412	-10.799252	10.659722	-20.245680	15.746132	-5.949758	4.044570	3.444911	-9.547717	10.716365	-5.571297	-0.493949	3.569188	-2.312923	
3.865102	102.790943	-3.502697	4.217327	-1.789538	27.543461	-8.950202	-7.667888	-2.612309	5.193677	16.055220	-18.017332	-0.207257	-4.024628	-4.824252	0.	0.	0.	-6.516607	3.018473	-11.186434	0.991021	10.045434	-8.313738	2.908703	-8.639462	-9.953325	0.	0.	0.	-0.000000	0.000000	-0.000003	7.476744	0.958748	29.800898	3.680181	0.832492	5.812421	47.097816	8.553346	25.376286	-75.759483	-53.287956	-75.987602	-11.805868	9.521659	-13.705730	0.960832	-0.771775	2.862549	-12.749128	13.513673	-10.989185	10.721300	-20.230194	15.027861	-6.564791	3.687998	2.988346	-8.944678	10.164479	-4.512199	-1.315465	3.896024	-2.120556	
3.661518	102.835718	-3.304650	4.007517	-1.678329	25.856792	-8.469456	-7.614513	-2.390778	4.815814	15.503798	-16.868299	-0.365520	-3.900342	-4.472672	0.	0.	0.	-6.368517	2.461500	-10.839731	0.851035	10.004723	-7.317382	2.664380	-8.433001	-9.675035	0.	0.	0.	0.000001	0.000000	-0.000002	7.450362	0.974839	29.619741	3.630819	1.308188	4.960536	45.821838	7.760108	23.555983	-69.856316	-51.868626	-69.972694	-11.410969	9.087357	-13.041570	0.690115	-0.159922	2.319491	-11.513323	12.352635	-10.686539	10.736109	-20.142691	14.204833	-6.981976	3.380384	2.334601	-8.825500	9.565046	-3.415427	-1.213755	4.058272	-1.759228	
3.554662	102.852480	-3.175734	3.911662	-1.611122	24.999916	-8.255757	-7.579230	-2.255493	4.652712	15.215357	-16.304195	-0.444840	-3.829463	-4.299479	0.	0.	0.	-6.295474	2.171710	-10.650031	0.769986	10.030276	-6.970959	2.572525	-8.356807	-9.389155	0.	0.	0.	-0.000000	-0.000000	-0.000001	7.340208	0.969533	29.324228	3.646622	1.484466	4.818617	45.211834	7.395131	22.584518	-67.266144	-51.215481	-67.314728	-11.398984	9.070818	-12.711472	0.612143	-0.014777	2.183460	-10.912872	11.865843	-10.290659	10.668036	-20.010292	13.795480	-7.134157	3.281924	2.004007	-8.790168	9.302089	-2.851311	-1.066945	4.009121	-1.398538	
3.344747	102.869979	-2.904430	3.699434	-1.460180	23.278204	-7.876849	-7.556501	-1.983632	4.392859	14.689377	-15.298074	-0.580146	-3.690387	-3.830698	0.	0.	0.	-6.170262	1.561802	-10.276995	0.650507	10.144933	-6.698531	2.474899	-8.221504	-8.363361	0.	0.	0.	0.000000	0.000000	0.000002	7.098859	1.023443	28.813406	3.739548	1.942585	4.249641	44.387447	7.848062	22.939280	-65.166779	-48.612091	-65.245987	-11.399140	8.955115	-12.117987	0.427360	0.074655	1.742604	-9.682895	10.914862	-9.239591	10.321622	-19.483557	13.135930	-7.480476	3.173651	1.555659	-8.693055	8.752604	-1.421210	-0.902156	3.849476	-1.057795	
3.228571	102.862547	-2.451655	3.329086	-1.186463	20.722452	-7.317943	-7.844765	-0.831735	4.215624	14.254289	-14.496090	-0.694582	-3.631692	-3.225659	0.	0.	0.	-5.992442	0.725609	-9.140775	0.577848	10.232411	-6.562088	2.427928	-8.071083	-7.138286	0.	0.	0.	0.000001	0.000000	-0.000002	6.752484	1.121482	28.159975	3.746185	2.304878	4.470336	43.029308	7.242019	21.351151	-60.068932	-47.901215	-61.347736	-10.721625	8.092647	-11.873769	0.253646	0.129158	0.895154	-8.124356	9.573818	-7.727292	9.675735	-18.282160	12.833445	-8.242056	3.052866	1.488593	-8.447347	7.989893	-0.580448	-1.162424	3.561418	0.782691	
3.080797	102.879358	-2.532091	3.329086	-1.186463	20.722452	-7.325489	-7.631093	-1.476936	4.142672	14.055577	-14.103998	-0.754138	-3.623333	-2.944132	0.	0.	0.	-6.003282	0.648361	-9.834249	0.544977	10.242913	-6.376079	2.400455	-7.964394	-6.626906	0.	0.	0.	0.000001	0.000000	-0.000002	6.752484	1.121482	28.159975	3.598206	2.619040	2.958211	42.355499	6.881101	20.585571	-57.495823	-47.509438	-59.477608	-10.036153	7.366472	-11.784702	0.253646	0.129158	0.895154	-8.124356	9.573818	-7.727292	9.675735	-18.282160	12.833445	-8.242056	3.052866	1.488593	-8.447347	7.989893	-0.580448	-1.162424	3.561418	0.782691	
2.745088	102.913368	-2.129789	2.878097	-0.701449	17.476475	-6.638970	-7.782296	-1.014217	3.809073	13.309490	-12.134010	-0.988402	-3.616923	-2.089196	0.	0.	0.	-5.755854	-0.499438	-9.342352	0.421902	10.048047	-5.030146	2.195596	-7.468243	-5.308711	0.	0.	0.	-0.000000	-0.000000	0.000001	6.259609	1.242588	27.035881	3.168522	3.351269	1.450037	39.890999	5.358129	18.315821	-48.592430	-44.737659	-52.390762	-7.602269	4.531549	-10.354429	0.020036	0.061683	0.106881	-6.457771	8.446091	-5.800235	8.828701	-17.027462	12.457851	-9.367590	2.965899	1.502107	-7.672403	6.648273	1.526913	-1.893792	3.675216	2.271542	
2.735284	102.891024	-1.759566	2.679300	-0.407758	15.921150	-6.339277	-7.908550	-0.894629	3.635767	12.980411	-11.209730	-1.074118	-3.639238	-1.553553	0.	0.	0.	-5.566486	-1.058250	-9.012865	0.138548	10.111707	-3.827947	2.199407	-7.447578	-5.301680	0.	0.	0.	-0.000000	0.000000	0.000002	5.975028	1.227476	26.346680	3.029789	3.587932	0.849250	38.680183	4.510873	17.485435	-45.018795	-42.913780	-49.140091	-7.253902	3.859591	-9.540092	-0.110064	-0.052275	-0.115030	-5.668242	8.165042	-4.800068	8.313043	-16.605570	11.940951	-9.669018	2.944429	1.388950	-7.598806	6.049053	2.331039	-2.055790	3.628479	3.693150	
2.413658	102.938395	-1.667166	2.480404	-0.101555	14.382237	-6.005139	-8.069495	-0.750118	3.428461	12.675064	-10.514952	-1.125378	-3.654776	-0.821382	0.	0.	0.	-5.335737	-1.624302	-8.582707	0.130761	9.790174	-3.588873	1.993462	-7.030851	-4.511464	0.	0.	0.	-0.000000	-0.000000	0.000003	5.660749	1.192106	25.877113	2.997241	3.712953	0.106218	37.397953	3.699613	16.463608	-41.657192	-41.276447	-46.135300	-7.088902	3.567369	-9.029116	-0.214500	-0.241271	-0.505759	-4.926620	7.994978	-4.141886	7.874091	-16.287016	11.527456	-9.800048	2.946080	1.320699	-7.660632	5.529943	2.725452	-1.645062	3.601455	4.615103	
2.204841	102.949984	-1.517519	2.276589	0.184782	12.857741	-5.634280	-8.147435	-0.493842	3.236840	12.289860	-9.799921	-1.191750	-3.630109	-0.230785	0.	0.	0.	-5.104631	-2.197756	-8.174754	0.051856	9.645797	-3.076947	1.880743	-6.753799	-3.955045	0.	0.	0.	-0.000000	-0.000000	0.000002	5.352994	1.158350	25.463350	3.012893	3.903161	-0.646582	36.086716	2.730630	15.493389	-38.373764	-39.587151	-43.529247	-6.721448	2.991721	-8.733068	-0.269793	-0.410264	-0.882749	-4.338753	7.828624	-3.974063	7.676446	-16.078558	11.365287	-9.879086	2.994571	1.343220	-7.469347	4.997744	3.081706	-1.504570	3.618361	5.441201	
1.936860	102.969343	-1.445519	2.082407	0.448885	11.338153	-5.199180	-8.127523	-0.130821	3.013142	11.805098	-8.873482	-1.293823	-3.567870	0.028191	0.	0.	0.	-4.849471	-2.776421	-7.841383	-0.030162	9.486614	-2.834763	1.798224	-6.433011	-3.065487	0.	0.	0.	0.000001	-0.000001	-0.000001	5.003938	1.164329	24.967077	3.023478	3.932476	-1.187415	34.883488	1.718893	14.460680	-35.321579	-37.769375	-41.441425	-5.838421	2.017841	-8.535782	-0.253790	-0.568295	-1.095981	-3.906461	7.660707	-4.129457	7.699655	-15.968907	11.359361	-9.967278	3.041485	1.339183	-7.353754	4.338281	3.893141	-1.304519	3.652079	6.169282	
1.759037	102.965652	-1.313059	1.909847	0.714185	9.814443	-4.773382	-8.044696	0.271639	2.784993	11.259558	-7.754326	-1.400386	-3.487248	0.059094	0.	0.	0.	-4.586586	-3.382783	-7.591427	-0.239076	9.482086	-2.152544	1.780125	-6.223410	-2.491173	0.	0.	0.	-0.000000	-0.000000	0.000000	4.603175	1.258878	24.363537	3.042651	3.801012	-1.503354	33.736706	0.647435	13.359487	-32.551311	-36.019009	-39.561584	-5.044508	1.231499	-8.248543	-0.232471	-0.814573	-1.112869	-3.551677	7.528495	-4.339079	7.765090	-15.900327	11.436707	-9.985621	3.046113	1.207627	-7.285140	3.523065	4.963398	-1.037752	3.709687	6.758332	
1.695207	102.944015	-1.075690	1.757253	0.993199	8.279490	-4.429416	-8.206790	1.248983	2.703313	10.975400	-7.210823	-1.458046	-3.443742	0.078175	0.	0.	0.	-4.372723	-3.919239	-6.659076	-0.314526	9.501498	-1.815849	1.762297	-6.112966	-2.242692	0.	0.	0.	0.000000	-0.000000	0.000001	4.203198	1.294172	23.767763	3.198406	3.609845	-0.528548	32.537598	-1.055178	11.177122	-30.096970	-34.369118	-37.529362	-4.786057	0.950600	-7.846620	-0.225845	-1.019399	-1.084705	-3.217411	7.391317	-4.302237	7.721759	-15.843846	11.535229	-9.916706	3.041979	1.021553	-7.145763	2.765529	5.175798	-0.875593	3.737494	8.206754	
1.599394	102.959353	-1.226606	1.757253	0.993199	8.279490	-4.421656	-7.952258	0.715404	2.637264	10.701680	-6.736598	-1.505435	-3.407477	0.156550	0.	0.	0.	-4.355497	-4.043602	-7.166253	-0.381564	9.522740	-1.519226	1.734234	-5.994147	-2.032476	0.	0.	0.	0.000000	-0.000000	0.000001	3.756516	1.558277	21.657726	3.346518	3.380766	0.424623	32.582512	-0.467462	12.218767	-30.096962	-34.369118	-37.529362	-4.786052	0.950597	-7.846621	0.129631	-1.437289	1.036564	-3.217410	7.391316	-4.302233	7.721759	-15.843844	11.535230	-9.916705	3.041978	1.021557	-6.937644	2.099512	6.499854	-0.909506	3.717624	8.940624	
1.289451	102.925731	-0.936976	1.480140	1.566362	5.312733	-3.779434	-7.927207	1.468779	2.359718	9.860542	-5.499328	-1.602723	-3.352921	1.201886	0.	0.	0.	-3.789207	-5.210465	-5.964324	-0.669813	9.528754	-0.370277	1.622178	-5.566827	-1.460380	0.	0.	0.	0.000000	0.000000	0.000002	3.527907	1.334719	22.564392	3.764997	3.608237	-1.946457	29.972980	-3.092683	10.234257	-26.241940	-30.643251	-32.752560	-4.998437	1.436472	-7.009583	-0.304671	-1.520102	-1.062871	-2.820944	7.105498	-3.582883	7.570374	-15.611277	11.961808	-9.788413	3.122718	0.789924	-6.726856	1.640489	6.991028	-0.854705	3.510827	9.784450	
